<?xml version="1.0" encoding="UTF-8" standalone="no"?>
<!-- Created with Inkscape (http://www.inkscape.org/) -->

<svg
   xmlns:dc="http://purl.org/dc/elements/1.1/"
   xmlns:cc="http://creativecommons.org/ns#"
   xmlns:rdf="http://www.w3.org/1999/02/22-rdf-syntax-ns#"
   xmlns:svg="http://www.w3.org/2000/svg"
   xmlns="http://www.w3.org/2000/svg"
   xmlns:sodipodi="http://sodipodi.sourceforge.net/DTD/sodipodi-0.dtd"
   xmlns:inkscape="http://www.inkscape.org/namespaces/inkscape"
   version="1.1"
   id="svg3735"
   width="192"
   height="220"
   viewBox="0 0 192 220"
   sodipodi:docname="uos_mvd_smallemb_n17342.svg"
   inkscape:version="0.92.4 (5da689c313, 2019-01-14)">
  <metadata
     id="metadata3741">
    <rdf:RDF>
      <cc:Work
         rdf:about="">
        <dc:format>image/svg+xml</dc:format>
        <dc:type
           rdf:resource="http://purl.org/dc/dcmitype/StillImage" />
        <dc:title></dc:title>
      </cc:Work>
    </rdf:RDF>
  </metadata>
  <defs
     id="defs3739" />
  <sodipodi:namedview
     pagecolor="#ffffff"
     bordercolor="#666666"
     borderopacity="1"
     objecttolerance="10"
     gridtolerance="10"
     guidetolerance="10"
     inkscape:pageopacity="0"
     inkscape:pageshadow="2"
     inkscape:window-width="1920"
     inkscape:window-height="1017"
     id="namedview3737"
     showgrid="false"
     inkscape:zoom="1.0727273"
     inkscape:cx="-55.483051"
     inkscape:cy="110"
     inkscape:window-x="-8"
     inkscape:window-y="-8"
     inkscape:window-maximized="1"
     inkscape:current-layer="svg3735" />
  <path
     style="fill:#ffffff;fill-opacity:5"
     d="m 7.6041008,217.59796 c -4.9070511,-2.81325 -7.86228964,-8.00589 -7.24692389,-12.73355 1.33406619,-10.2492 1.96923829,-11.22617 6.99749389,-10.76297 2.4719878,0.22772 3.8978322,-0.93367 10.6362722,-8.66355 l 7.781602,-8.92652 0.69031,-7.91357 c 0.37967,-4.35246 0.92402,-7.67985 1.209667,-7.3942 0.285647,0.28565 0.01262,5.2259 -0.606724,10.97835 -1.256759,11.6727 -0.453004,17.7397 2.778222,20.97092 1.156274,1.15628 2.658772,1.73258 3.587711,1.37611 1.983882,-0.76129 4.146135,-5.97195 2.680844,-6.46038 -2.676397,-0.89213 -5.909473,-4.43868 -6.433106,-7.05684 -0.814237,-4.07119 0.988233,-9.90711 3.285038,-10.63608 1.046241,-0.33207 5.644735,0.32436 10.218875,1.45872 10.955984,2.71702 38.571432,4.62414 49.653356,3.42905 l 8.336742,-0.89904 -9.335814,-6.75 c -5.134696,-3.7125 -8.586228,-6.75 -7.670072,-6.75 0.916157,0 1.815739,0.37259 1.999073,0.82797 0.183333,0.45538 4.075771,3.43882 8.649863,6.62986 l 8.31653,5.80189 5.63223,-0.66195 c 3.09773,-0.36408 5.8293,-0.85903 6.07016,-1.09989 0.24087,-0.24086 -1.98608,-3.36943 -4.94876,-6.95236 -4.81559,-5.82377 -5.70475,-6.46734 -8.38669,-6.07016 -9.241409,1.36858 -15.746823,1.73302 -15.202097,0.85164 0.349679,-0.56579 -0.575006,-0.79318 -2.234862,-0.54956 -2.36205,0.34668 -4.176511,-0.7698 -10.947188,-6.73604 C 68.652134,148.97244 65,145.35254 65,144.86158 c 0,-0.49096 2.3625,-1.05793 5.25,-1.25993 5.086975,-0.35587 5.046862,-0.37302 -1.291792,-0.55226 -6.288015,-0.1778 -6.705042,-0.35132 -10.75,-4.47283 C 55.893694,136.21824 54,134.02866 54,133.71083 c 0,-0.31783 1.9125,-0.20789 4.25,0.2443 8.215751,1.58936 10.483043,0.86054 3.25,-1.04471 -10.101664,-2.66087 -11.534241,-3.54049 -16.223565,-9.96145 -6.570068,-8.99621 -6.615307,-8.8376 2.422962,-8.49498 7.259529,0.27519 7.419106,0.23988 2.300603,-0.50908 -3.025,-0.44264 -7.157153,-1.27217 -9.182561,-1.84342 -4.401619,-1.24143 -4.78265,-0.95737 -4.935754,3.67959 -0.06507,1.97083 -0.479172,4.93333 -0.92022,6.58333 -0.505993,1.89296 -0.598756,0.60142 -0.251382,-3.5 0.302788,-3.575 0.900241,-6.95 1.327673,-7.5 0.427432,-0.55 -0.972374,-5.05 -3.110679,-10 -2.138305,-4.950003 -3.896658,-9.540577 -3.907452,-10.201279 -0.0253,-1.548874 11.787279,-0.90589 13.374855,0.728022 0.824276,0.848335 -0.166476,0.968274 -3.89448,0.471462 -2.75,-0.36648 -5.77707,-0.880514 -6.726821,-1.142298 -1.583998,-0.436605 -1.614457,-0.160849 -0.368264,3.334059 0.747207,2.095517 2.655648,6.500924 4.24098,9.789794 2.810417,5.83037 3.019467,6.01192 8.368264,7.26767 C 47.031372,112.3202 53.325,113.09943 58,113.34346 l 8.5,0.44369 18.5,20.95532 c 10.175,11.52542 21.425,24.57129 25,28.99082 3.575,4.41952 7.2875,8.05701 8.25,8.08331 0.9625,0.0263 1.75,-0.32375 1.75,-0.77788 0,-1.47636 -4.6243,-5.21446 -5.48451,-4.43346 -0.45988,0.41753 -0.5222,0.21244 -0.13849,-0.45576 1.1815,-2.05748 -47.486756,-54.95333 -49.446767,-53.74197 -0.915394,0.56574 -7.858859,-6.4454 -7.903175,-7.98021 -0.01488,-0.5154 1.435442,0.3846 3.222942,2 l 3.25,2.93709 -2.903025,-3.21444 c -1.596664,-1.76795 -3.253701,-2.99771 -3.682306,-2.73282 -0.428604,0.26489 -3.832234,-3.463615 -7.563621,-8.285563 C 45.61966,90.309638 39.061245,82.000569 34.776791,76.666989 24.278124,63.597531 14.524838,49.059706 9.7508516,39.364407 l -3.9392179,-8 0.6864016,4.95636 c 1.0195168,7.361713 5.3189187,21.686042 7.3666957,24.54364 0.985335,1.375 3.872794,4.058569 6.416574,5.963486 2.543781,1.904917 4.490218,3.598324 4.325416,3.763127 C 24.441918,70.755822 22.662987,70.203714 20.65354,69.364114 18.644093,68.524513 17,68.081438 17,68.379504 c 0,1.467405 6.015276,12.190763 7.640657,13.620903 1.022638,0.8998 4.266588,2.842555 7.208777,4.317233 2.942188,1.474678 5.092419,2.938247 4.77829,3.252376 C 36.313595,89.884145 33.00635,88.39139 29.27829,86.252783 22.953227,82.624401 22.252315,81.862923 18.795723,74.864407 14.517665,66.202681 14.392921,65.697993 16.75,66.587835 17.721369,66.954545 17.015208,65.755263 15.16288,63.892407 13.327464,62.04656 11.371504,59.37264 10.816301,57.950364 8.2639061,51.411832 5,36.029926 5,30.539714 V 24.47147 l 5.9251,9.946469 c 5.48891,9.214234 10.905828,16.531862 20.326669,27.458971 l 3.751768,4.351627 5.248232,-1.631078 C 51.271605,61.172647 59.317849,60.3641 82,60.402288 c 23.0499,0.03881 28.50258,0.654724 40.72825,4.600544 3.42553,1.105587 7.05686,1.747165 8.06962,1.425729 4.69391,-1.48979 6.77715,-13.905098 3.45058,-20.564154 -1.85702,-3.717332 -3.88135,-4.218687 -10.74845,-2.662005 -2.69398,0.61069 -2.64298,0.533891 0.5,-0.752889 1.925,-0.788123 4.47984,-1.467185 5.67742,-1.509028 2.00333,-0.07 5.61016,3.331466 6.59989,6.224106 0.22825,0.667083 2.41768,-1.008652 4.93101,-3.774076 l 4.52049,-4.973892 -2.00224,-2.708185 c -1.63959,-2.217663 -1.88374,-3.60157 -1.34795,-7.640584 0.63852,-4.813373 0.59595,-4.921241 -1.76429,-4.470054 -1.58354,0.302713 -3.14291,-0.261973 -4.51646,-1.635525 -5.78584,-5.785837 1.6289,-13.9903823 9.05289,-10.017186 2.34379,1.254361 5.78835,8.281515 5.84259,11.919318 0.0205,1.375 0.48862,3.175 1.04026,4 0.87477,1.308249 1.13483,1.276291 2.03438,-0.25 0.56726,-0.9625 1.63155,-1.75 2.36507,-1.75 0.73352,0 1.57777,-0.933396 1.8761,-2.074213 0.29833,-1.140817 1.47581,-2.318301 2.61663,-2.616631 C 162.0666,20.875233 163,19.997491 163,19.223025 c 0,-0.774466 1.125,-1.835844 2.5,-2.358618 1.375,-0.522774 2.5,-1.636636 2.5,-2.475249 0,-0.838613 0.36206,-1.524751 0.80458,-1.524751 1.54072,0 7.96613,-6.571013 8.33969,-8.528665 0.79851,-4.18469492 9.27767,-2.4962567 12.88168,2.5651029 2.7066,3.8010691 2.6774,8.9635621 -0.0507,8.9635621 -1.2396,0 -2.39333,0.96944 -2.97525,2.5 -0.52277,1.375 -1.42614,2.5 -2.00747,2.5 -0.58134,0 -1.39083,0.7875 -1.79888,1.75 -1.46225,3.449186 -5.40833,9.25 -6.29243,9.25 -0.49567,0 -0.90122,0.671187 -0.90122,1.491526 0,0.820339 -0.9,2.053586 -2,2.740547 -1.1,0.686961 -2,2.018414 -2,2.958784 0,0.940369 -0.78375,2.148372 -1.74167,2.68445 -3.25661,1.822489 -0.89194,2.482159 10.91494,3.044936 0.92031,0.04387 3.05781,1.244759 4.75,2.668651 3.6566,3.076824 4.10222,7.385615 1.07673,10.411106 -3.91437,3.914366 -11,1.481597 -11,-3.776721 0,-1.92432 -0.27822,-2.022253 -3.02489,-1.064759 -2.66356,0.928525 -5.5022,0.844403 -11.04152,-0.327211 -1.00323,-0.212193 -7.94815,7.039116 -19.3165,20.168691 -13.80461,15.943276 -17.65628,20.993402 -17.32805,22.719738 0.23213,1.220855 0.037,1.981798 -0.4335,1.690983 C 124.38499,96.984313 124,89.86916 124,81.463678 V 66.180982 l -3.75,-1.103971 C 110.36937,62.168231 101.66048,61.366427 80.5,61.417334 59.892329,61.466914 53.392151,62.066091 42.945591,64.879058 39.799001,65.726346 39,66.408566 39,68.247964 c 0,1.268557 0.858881,3.083745 1.908625,4.03375 1.049744,0.950005 2.466917,3.075118 3.149274,4.722474 0.710306,1.71483 1.526834,2.532135 1.91013,1.911948 1.188654,-1.923282 7.874993,4.171177 10.640146,9.698271 1.444589,2.8875 2.965593,5.25 3.380009,5.25 0.414416,0 1.06701,2.77121 1.45021,6.158243 0.649303,5.73909 1.068549,6.53885 6.159503,11.75 l 5.462777,5.59176 -2.023636,-5.27002 c -3.119098,-8.12286 -6.947664,-15.231519 -9.669023,-17.952877 -1.358658,-1.358658 -2.311613,-2.946312 -2.117677,-3.52812 0.489085,-1.467255 7.336689,8.063184 9.808807,13.651817 1.118944,2.52956 2.218425,4.5992 2.44329,4.5992 0.511979,0 -2.001388,-7.19527 -3.475509,-9.949691 -0.603511,-1.127671 -0.874672,-2.050312 -0.602579,-2.050312 1.492946,0 6.162027,6.495393 9.704209,13.500003 l 4.045541,8 -0.733262,-6 -0.733262,-6 2.419926,3 c 4.580889,5.67896 4.956882,6.31602 6.875623,11.64969 1.758189,4.88737 1.927848,5.0691 1.960802,2.10031 0.01984,-1.7875 0.446812,-3.25 0.948823,-3.25 0.502012,0 3.627327,2.67276 6.945147,5.93947 4.859446,4.78458 6.436636,7.16649 8.111356,12.25 1.61039,4.88822 1.94338,5.40898 1.47742,2.31053 l -0.60154,-4 4.15916,4 c 4.90083,4.7133 10.98311,14.58604 14.16956,23 1.24974,3.3 3.18439,6.74785 4.29921,7.66189 1.62255,1.33032 2.03127,2.86506 2.04866,7.69255 0.0169,4.68256 0.48689,6.54648 2.10263,8.33811 2.24267,2.48682 14.54338,18.85515 20.89714,27.80745 l 3.90354,5.5 -4.96252,-4.41178 c -9.69423,-8.61839 -15.57275,-14.3662 -18.15383,-17.75016 -2.13907,-2.80447 -3.09148,-3.32504 -5.22574,-2.85628 -1.5016,0.32981 -5.15214,-0.31634 -8.59643,-1.52157 C 119.19393,192.67248 112.225,191.09539 107,190.31999 l -9.5,-1.40983 7.81333,0.52456 c 4.29733,0.28851 10.59733,1.39742 14,2.46423 3.40267,1.06681 6.23774,1.94546 6.30016,1.95256 0.0624,0.007 -0.30134,-2.26939 -0.80834,-5.05885 -0.56948,-3.13322 -0.55924,-7.43322 0.0268,-11.25 0.52173,-3.39804 0.88548,-6.2412 0.80834,-6.31814 -0.0772,-0.0769 -3.29027,0.70614 -7.14027,1.74017 -11.42725,3.06913 -34.890337,4.44913 -52.75,3.10252 -8.3875,-0.63242 -17.5,-1.80597 -20.25,-2.60789 -7.377989,-2.15149 -11.762137,-2.62224 -13.21233,-1.41869 C 31.532677,172.66722 31,175.3104 31,178.43015 c 0,4.32087 0.406502,5.60558 2.162968,6.83585 3.340677,2.33991 4.136194,0.94396 3.583628,-6.28843 -0.292044,-3.82249 -0.163849,-5.76918 0.303789,-4.61316 1.168908,2.8896 1.124285,13.91038 -0.06903,17.04904 -0.836871,2.20114 -0.758808,2.57954 0.437454,2.12049 3.16114,-1.21304 9.805379,-2.77868 10.18426,-2.3998 0.220651,0.22065 -2.187273,1.16178 -5.350942,2.09138 -5.082531,1.49345 -6.416013,2.48425 -11.455232,8.51144 -3.940453,4.713 -5.382363,7.14198 -4.665335,7.85901 1.416743,1.41674 0.706682,5.3908 -1.131558,6.33309 -8.822741,4.52259 -11.902889,4.81809 -17.3958992,1.6689 z m 11.6256632,-0.37869 c 5.695327,-2.19416 7.133342,-3.63545 6.287174,-6.30149 -0.518372,-1.63325 -1.346103,-2.09347 -3.348031,-1.86151 -2.07346,0.24025 -2.772322,0.96644 -3.171865,3.29593 -0.614957,3.58542 -2.550513,4.14345 -7.377008,2.12681 -5.8664708,-2.45117 -10.4931172,-12.6146 -5.7424787,-12.6146 1.0326554,0 2.4690605,-0.71272 3.1920113,-1.58382 1.7700634,-2.1328 -0.00632,-4.91618 -3.1375578,-4.91618 -2.3983472,0 -3.2352829,1.82456 -4.5870471,10 -0.64175709,3.88133 2.9452662,9.37216 7.6749716,11.74845 4.2828107,2.15175 4.8845167,2.15803 10.2098307,0.10641 z m -1.818659,-4.72592 c -0.565345,-1.47327 1.974531,-4.55483 3.910324,-4.74429 0.648214,-0.0634 1.674787,-0.17594 2.281272,-0.25 0.606486,-0.0741 3.217245,-2.60965 5.801687,-5.63465 4.495824,-5.26221 4.600962,-5.52322 2.431771,-6.03695 -2.950424,-0.69875 -5.822892,-5.71124 -6.671138,-11.64122 l -0.675121,-4.71968 -6.68981,7.80912 c -4.613142,5.385 -6.784533,8.78163 -6.99495,10.94197 -0.219225,2.25077 -1.0622904,3.49391 -2.994269,4.4152 -2.4514708,1.16901 -2.5973003,1.54576 -1.6500764,4.26297 0.571479,1.63935 2.1797735,3.87792 3.573988,4.97461 2.9561884,2.32534 8.5023054,2.7754 7.6763224,0.62292 z M 143.8024,200.75816 c -5.11632,-6.65844 -10.00574,-12.99345 -10.86539,-14.0778 -1.29254,-1.63041 -1.7582,-1.73633 -2.6912,-0.61214 -0.88183,1.06254 0.0829,2.8812 4.41751,8.3278 4.48621,5.63708 16.88132,18.22498 18.13908,18.42121 0.16633,0.0259 -3.88367,-5.40063 -9,-12.05907 z m -12.18437,-7.08473 c 0.40484,-0.65504 0.27021,-1.34627 -0.29917,-1.53607 -0.56938,-0.18979 -1.88655,-1.03722 -2.92705,-1.88317 -1.0405,-0.84595 -1.25978,-1.2102 -0.4873,-0.80943 0.92339,0.47906 1.16009,0.33319 0.69098,-0.42584 -1.0301,-1.66674 -2.59549,-1.41871 -2.59549,0.41123 0,4.14007 3.87362,7.0658 5.61803,4.24328 z m -2.19096,-8.37895 c 2.13779,-2.13779 2.92168,-5.75755 2.14426,-9.90156 -1.3826,-7.36988 -4.50298,-5.44876 -5.73065,3.52819 -1.08282,7.91776 0.0424,9.91737 3.58639,6.37337 z m -2.66844,-15.85536 c 0.1445,-0.1445 -0.40647,-2.15943 -1.22437,-4.47761 -2.39322,-6.78311 -8.29261,-17.24747 -12.40733,-22.00819 l -3.81253,-4.41108 1.36734,7.91108 c 1.41997,8.21558 1.37492,14.72994 -0.0616,8.91109 -0.40735,-1.65 -2.1019,-7.5 -3.76566,-13 -2.7009,-8.9285 -3.57477,-10.56254 -8.155586,-15.25 -2.821805,-2.8875 -5.385277,-5.25 -5.696606,-5.25 -0.311329,0 -0.662166,1.16132 -0.779639,2.58071 -0.459321,5.54987 -1.90848,5.89728 -3.142489,0.75335 -1.113999,-4.64367 -6.788394,-15.95914 -7.597382,-15.15015 -0.203677,0.20368 0.03006,2.15812 0.519408,4.3432 0.489351,2.18509 1.026553,6.1945 1.193782,8.9098 0.291707,4.73645 0.72154,5.38609 10.586397,16 5.655292,6.0847 14.205285,15.65752 19.000005,21.27294 7.60731,8.90945 9.03581,10.14092 11.2156,9.66872 1.37387,-0.29763 2.61618,-0.65936 2.76068,-0.80386 z M 102.48992,156.8481 c -0.34546,-0.55897 -1.11655,-0.71444 -1.71353,-0.34549 -0.61219,0.37835 -0.800533,0.20988 -0.432,-0.38642 0.35938,-0.58149 -1.591896,-3.71231 -4.336164,-6.95738 l -4.989578,-5.90014 -6.759324,0.75152 c -3.717628,0.41334 -9.121824,0.77463 -12.009324,0.80287 -2.8875,0.0282 -5.218917,0.38885 -5.180927,0.80135 0.03799,0.4125 3.059942,3.3375 6.715448,6.5 l 6.646374,5.75 h 11.34357 c 7.429112,0 11.126815,-0.35071 10.715455,-1.01631 z M 89,141.4816 c 0,-0.21055 -5.115004,-6.11421 -11.366675,-13.11926 l -11.366674,-12.73645 -11.856177,0.17544 c -6.520897,0.0965 -11.97456,0.29383 -12.119251,0.43852 -0.144691,0.14469 1.704158,2.96663 4.108553,6.27098 3.828401,5.26134 5.063043,6.22537 9.935808,7.75805 7.151257,2.24934 18.369303,4.59553 21.973059,4.59553 1.618283,0 2.547361,0.42397 2.191357,1 -0.768791,1.24393 -7.955986,1.25519 -16.462572,0.0258 -3.554415,-0.51369 -6.61041,-0.78615 -6.791099,-0.60546 -0.180689,0.18069 0.85497,1.73503 2.301466,3.45409 l 2.629992,3.12557 H 75.588894 C 82.965002,141.86441 89,141.69215 89,141.4816 Z m -9.858259,-23.76038 c -3.155363,-7.94317 -7.102415,-15.22947 -7.84673,-14.48515 -0.251378,0.25137 -0.03089,1.28309 0.489968,2.29269 0.520861,1.00961 1.260227,4.29169 1.643037,7.29351 0.555771,4.35811 1.439143,6.27326 4.384001,9.50451 2.028391,2.22566 3.81875,3.76482 3.978576,3.42036 0.159827,-0.34446 -1.032157,-3.95612 -2.648852,-8.02592 z M 64.183333,109.64774 C 63.465771,108.93018 63,108.87114 63,109.49774 c 0,1.33478 1.18261,2.51739 1.85,1.85 0.284167,-0.28416 -0.01583,-1.04916 -0.666667,-1.7 z M 59.38523,99.114407 C 57.202977,91.80965 53.242715,84.604041 50.026658,82.086691 l -2.909912,-2.277715 0.487691,3.777715 c 0.463956,3.593861 0.345139,3.485706 -2.441352,-2.222284 -1.610973,-3.3 -3.66887,-6.9 -4.573103,-8 -1.559652,-1.897317 -1.611008,-1.743291 -1.000279,3 0.381118,2.959987 1.532572,6.020006 2.822174,7.5 6.982568,8.013448 17.820956,20.000003 18.084245,20.000003 0.169478,0 -0.330423,-2.1375 -1.110892,-4.750003 z M 129.615,78.88531 c -0.78992,-4.776258 -1.36984,-6.020903 -2.80538,-6.020903 -1.61867,0 -1.80533,0.976074 -1.76898,9.25 l 0.0406,9.25 2.76474,-3.229097 c 2.66375,-3.111152 2.72836,-3.449014 1.76898,-9.25 z m 4.96725,-2.434178 c -0.46835,-2.496525 -1.20598,-3.586725 -2.42676,-3.586725 -1.4254,0 -1.68504,0.702347 -1.38629,3.75 0.60006,6.121474 1.03485,6.874524 2.8951,5.014267 1.16709,-1.167089 1.4116,-2.546172 0.91795,-5.177542 z M 35.069367,70.728451 C 33.399634,67.228227 29.708931,61.664407 26.867805,58.364407 20.38148,50.830469 14.399124,42.762949 11.366121,37.459576 8.1996593,31.922843 8.3722314,33.685356 11.629317,40.147651 16.77464,50.356345 36.533963,78.663777 37.700383,77.497358 37.923057,77.274683 36.7391,74.228675 35.069367,70.728451 Z M 139,75.364407 l 2.34863,-2.5 h -2.67432 c -2.18593,0 -2.67431,0.456546 -2.67431,2.5 0,1.375 0.14656,2.5 0.32569,2.5 0.17912,0 1.38256,-1.125 2.67431,-2.5 z m 4.5,-5.5 c 1.79869,-1.987525 1.74663,-2 -8.34501,-2 -9.48832,0 -10.15499,0.131298 -10.15499,2 0,1.840224 0.66667,2 8.34501,2 7.07502,0 8.62047,-0.304371 10.15499,-2 z M 38,68.30539 c 0,-0.792541 -0.675,-1.440983 -1.5,-1.440983 -1.68232,0 -1.750481,0.183683 -0.895215,2.412469 C 36.307282,71.107555 38,70.420999 38,68.30539 Z m 111.83264,-5.382345 c 4.04723,-5.036246 4.41362,-10.058638 0.73378,-10.058638 -1.91143,0 -2.50147,0.590031 -2.75,2.75 -0.24631,2.140684 -0.91083,2.818671 -2.99916,3.059932 -3.65991,0.422823 -5.34143,-2.616555 -3.16595,-5.7225 0.85591,-1.221979 2.18451,-1.980675 2.95244,-1.685991 C 145.56638,51.63524 146,51.034974 146,49.333022 c 0,-2.12611 -0.45785,-2.468615 -3.3,-2.468615 -4.56307,0 -5.7,1.545754 -5.7,7.74966 0,2.942313 -0.65705,6.62026 -1.46012,8.173216 -0.80306,1.552956 -1.17806,3.105609 -0.83333,3.45034 0.34473,0.344731 3.17647,0.626784 6.29275,0.626784 5.39384,0 5.8181,-0.189303 8.83334,-3.941362 z m 36.33862,-5.713626 c 2.39151,-2.164283 2.32696,-5.846792 -0.14582,-8.319576 -2.19219,-2.192188 -4.07672,-2.724232 -11.76917,-3.322693 -4.95616,-0.38558 -5.38119,-0.227745 -7.75,2.87793 C 165.12782,50.252316 164,51.985988 164,52.297685 c 0,1.593809 12.15715,-0.595199 14.45,-2.601856 3.01625,-2.639766 8.37037,1.767193 6.46726,5.323184 -1.08867,2.034188 -3.42989,2.442988 -4.4586,0.778512 -0.39579,-0.64041 0.0803,-0.940212 1.19099,-0.75 1.28931,0.220801 1.85035,-0.289532 1.85035,-1.683118 0,-2.525465 -3.6685,-3.206818 -5.48453,-1.018643 -1.0087,1.215409 -1.05095,2.145358 -0.18393,4.048257 1.34141,2.944067 5.53455,3.354042 8.33972,0.815398 z m -39.35884,-1.60952 c 0.39799,-2.06658 -2.48881,-3.459101 -4.01242,-1.935492 -1.52361,1.523609 -0.13109,4.41041 1.93549,4.012423 0.95785,-0.184464 1.89247,-1.119083 2.07693,-2.076931 z m 11.04093,-1.823776 2.35335,-2.977626 -4.78871,-4.217045 c -9.00644,-7.931258 -8.95788,-7.904011 -10.58369,-5.938227 -3.94857,4.774252 -3.97061,4.894802 -0.81005,4.430931 C 146.87082,44.656368 147,44.799108 147,48.362199 c 0,3.715303 0.009,3.723118 3.5,3.068186 3.57133,-0.669987 3.93396,-0.267389 3.76865,4.184022 -0.0727,1.95812 1.03196,1.391621 3.5847,-1.838284 z m 9.95351,-9.82943 c -0.76969,-1.903482 -16.0246,-14.243841 -16.64183,-13.462297 -0.38224,0.484006 -1.7272,2.06217 -2.98879,3.50703 l -2.2938,2.627019 8.30878,7.14276 8.30878,7.14276 2.80686,-3.099194 c 1.54378,-1.704558 2.66878,-3.440692 2.5,-3.858078 z M 155.5,42.711279 c -6.19682,-5.303817 -7.18443,-7.381779 -4.35626,-9.165742 1.32139,-0.833514 2.9441,0.104818 8.27478,4.784891 6.3137,5.543124 6.55065,5.910562 4.95127,7.677856 -0.92387,1.020868 -1.94752,1.852124 -2.27478,1.847237 C 161.76776,47.850621 158.8,45.535725 155.5,42.711279 Z m 2.77179,-3.520247 c -4.32398,-3.889327 -6.07029,-4.908821 -7.03582,-4.107499 -0.70637,0.586232 -1.16093,1.169052 -1.01014,1.295156 0.1508,0.126104 2.94202,2.546024 6.20273,5.3776 4.34665,3.7746 6.15085,4.80942 6.76165,3.878219 0.56749,-0.865177 -1.00056,-2.919436 -4.91842,-6.443476 z m 11.76338,1.130993 c 0.75469,-0.909346 0.90756,-1.880862 0.37245,-2.367085 -0.7974,-0.724555 -10.02537,-4.090533 -11.21437,-4.090533 -0.67467,0 8.20622,7.911404 8.93431,7.958987 0.34515,0.02256 1.20358,-0.653059 1.90761,-1.501369 z m 4.37734,-6.090214 c 0.61865,-1.612189 -1.88285,-2.888228 -11.60996,-5.922347 -4.76111,-1.485105 -5.95957,-1.559634 -7.29238,-0.453496 -2.25079,1.867992 -0.91296,2.84193 8.17401,5.950675 8.18181,2.799077 9.79287,2.862924 10.72833,0.425168 z m -26.16457,-2.117404 c 2.59977,-2.726547 2.61083,-2.80389 1.29667,-9.068908 -0.79298,-3.780442 -2.24295,-7.295538 -3.60935,-8.75 -3.1101,-3.310555 -7.36639,-3.228938 -9.60272,0.184139 -1.53569,2.343766 -1.56047,2.887991 -0.23868,5.242925 1.80549,3.216712 4.1157,3.789426 6.33471,1.570415 2.18339,-2.183386 1.6181,-4.847426 -1.11145,-5.237987 -1.59777,-0.22862 -2.26726,0.293635 -2.56384,2 -0.37101,2.134574 -0.46487,2.165978 -1.23982,0.414808 -0.60501,-1.367161 -0.32239,-2.271939 1.01519,-3.25 2.29901,-1.681075 2.64357,-1.681164 4.94095,-0.0013 1.71258,1.252265 1.76141,1.914839 0.64925,8.809072 -1.12629,6.981879 -0.84134,10.836836 0.80105,10.836836 0.38825,0 1.88587,-1.2375 3.32804,-2.75 z m 29.54589,-3.39988 c 0.24027,-1.261466 -1.60516,-2.289104 -7.83893,-4.36514 -7.45525,-2.482826 -8.28941,-2.579038 -9.74452,-1.12393 -1.95826,1.958256 -2.20022,1.770727 6.28962,4.874766 7.85952,2.873582 10.83269,3.035302 11.29383,0.614304 z M 181.5,23.441769 c 0,-1.475581 -1.4393,-2.306237 -6.5,-3.751307 -7.1661,-2.046263 -10.5,-2.036849 -10.5,0.02965 0,1.383084 12.67912,6.120869 15.5,5.791857 0.825,-0.09622 1.5,-1.027813 1.5,-2.070199 z m 3.3,-3.777362 c 0.66,-0.66 1.2,-1.69341 1.2,-2.296467 0,-1.269329 -14.55695,-4.895388 -16.02078,-3.990692 -2.37312,1.466672 -0.48929,3.13874 5.77695,5.127561 8.42298,2.67334 7.63156,2.571865 9.04383,1.159598 z M 181,11.84185 c -3.43383,-2.9126274 -6.99069,-3.5501032 -7.70391,-1.380729 -0.27508,0.836706 6.38314,3.486572 10.70391,4.259985 0.275,0.04922 -1.075,-1.246441 -3,-2.879256 z m 6.5,2.022557 c -0.72336,-1.17042 0.65958,-1.336512 2.08159,-0.25 0.53987,0.4125 -1.50763,-1.594957 -4.55,-4.4610157 -3.04238,-2.8660585 -5.03883,-5.2285585 -4.43658,-5.25 0.60226,-0.021442 1.95226,0.9095826 3,2.0689425 C 186.548,9.2399074 191,12.161918 191,10.832501 c 0,-0.642452 -1.53983,-2.7079222 -3.42184,-4.5899342 -2.57815,-2.578152 -4.1621,-3.3654345 -6.42418,-3.1930696 -4.36912,0.3329153 -3.76505,4.0780307 1.35658,8.4104538 3.88706,3.288102 6.2348,4.419498 4.98944,2.404456 z M 182,9.3644068 c -1.86578,-1.925 -2.94233,-3.5 -2.39233,-3.5 0.55,0 2.52655,1.575 4.39233,3.5 1.86578,1.9250002 2.94233,3.5000002 2.39233,3.5000002 -0.55,0 -2.52655,-1.575 -4.39233,-3.5000002 z M 52.5,189.83903 c 3.975972,-0.8542 13.212993,-1.30748 12.416667,-0.60931 C 64.6875,189.43063 60.9,189.84328 56.5,190.14671 c -5.745167,0.39619 -6.872584,0.30947 -4,-0.30768 z m 21.25,-1.71713 c 3.9875,-0.18981 10.5125,-0.18981 14.5,0 3.9875,0.18982 0.725,0.34512 -7.25,0.34512 -7.975,0 -11.2375,-0.1553 -7.25,-0.34512 z m 62.57007,-7.25749 c 0,-3.575 0.1815,-5.0375 0.40333,-3.25 0.22182,1.7875 0.22182,4.7125 0,6.5 -0.22183,1.7875 -0.40333,0.325 -0.40333,-3.25 z m -2.59446,-20.42608 c -0.96612,-7.08195 -1.57689,-13.05597 -1.35727,-13.27559 0.6233,-0.6233 3.88631,22.14086 3.47776,24.26231 -0.20015,1.03926 -1.15437,-3.90476 -2.12049,-10.98672 z M 28.138447,157.86441 c -0.0348,-1.375 0.767095,-6.55 1.781999,-11.5 1.014905,-4.95 1.875294,-8.1 1.911978,-7 0.03668,1.1 -0.765217,6.275 -1.782,11.5 -1.016783,5.225 -1.877172,8.375 -1.911977,7 z M 130.54545,141.31896 c -0.38251,-2.55082 -0.49094,-4.8424 -0.24094,-5.0924 0.25,-0.25 0.76752,1.63249 1.15004,4.1833 0.38251,2.55082 0.49094,4.8424 0.24094,5.0924 -0.25,0.25 -0.76752,-1.63249 -1.15004,-4.1833 z m -98.369506,-5.95455 c -0.03338,-1.1 0.311632,-3.8 0.766687,-6 0.695638,-3.36313 0.826843,-3.52234 0.824055,-1 -0.0039,3.5028 -1.497433,10.07517 -1.590742,7 z m 95.501916,-10.71435 c -0.8713,-5.65711 -1.79871,-13.88565 -2.06091,-18.28565 -0.53172,-8.922857 -0.39865,-8.227225 2.46185,12.8692 2.29561,16.93035 1.99593,20.9788 -0.40094,5.41645 z M 77.386336,102.94128 C 76.436631,101.33355 74.72369,99.570954 73.5798,99.024386 71.923961,98.233202 72.417311,98.087747 76,98.310837 c 2.475,0.154115 4.5,0.754216 4.5,1.333556 0,0.579337 0.3375,1.390847 0.75,1.803347 0.4125,0.4125 0.75,-0.225 0.75,-1.41667 0,-2.248808 1.422228,-2.910534 2.501671,-1.163959 0.414081,0.669997 1.243052,0.6691 2.498329,-0.0027 1.316229,-0.704425 2.092728,-0.65898 2.59382,0.151804 0.429732,0.695321 0.278312,0.887203 -0.379364,0.480737 -0.602009,-0.372066 -1.571696,-0.104095 -2.15486,0.595488 -0.583164,0.69958 -1.986848,2.39697 -3.119298,3.77197 l -2.058999,2.5 1.770102,-3 1.770103,-3 -2.111475,1.81514 c -1.376647,1.18345 -2.340571,1.44446 -2.769769,0.75 -1.237309,-2.00201 -2.652371,-1.14314 -1.54026,0.93486 1.670031,3.12048 0.318096,2.34708 -1.613664,-0.92313 z m 16.27158,-4.627801 c 0.305834,-0.796989 0.09542,-1.449072 -0.467594,-1.449072 -0.56301,0 -1.250629,0.5625 -1.528041,1.25 -0.277413,0.6875 -0.539913,0.2375 -0.583334,-1 -0.04342,-1.2375 0.33891,-2.25 0.849624,-2.25 0.510715,0 1.564278,-0.635707 2.341253,-1.412681 1.216909,-1.216909 1.429972,-0.952763 1.537446,1.906051 0.0764,2.032285 -0.423771,3.529226 -1.290326,3.861754 -0.934509,0.358605 -1.226244,0.0509 -0.859028,-0.906052 z m -15.40903,-2.535426 c -1.238112,-0.467512 -3.038112,-0.555083 -4,-0.194603 -1.520814,0.569945 -1.572923,0.439023 -0.399579,-1.003933 1.14044,-1.40249 1.112797,-1.895863 -0.178571,-3.187231 -1.768923,-1.768923 -3.105407,-2.040209 -2.109076,-0.428111 0.490077,0.792961 0.12476,0.802776 -1.3095,0.03518 -1.094057,-0.585521 -2.16625,-0.967917 -2.382651,-0.849768 -0.216401,0.118149 0.187658,-0.294464 0.897908,-0.916917 1.043159,-0.914211 0.987427,-1.248364 -0.289965,-1.738546 -0.86973,-0.333747 -1.338017,-0.213127 -1.040637,0.268043 0.483359,0.782091 -3.438999,2.433386 -4.132585,1.739799 -0.15571,-0.15571 0.612138,-1.244046 1.70633,-2.418523 1.094192,-1.174477 1.974469,-2.491729 1.956171,-2.927227 -0.0183,-0.435497 -0.818054,0.146744 -1.777236,1.293869 -0.959182,1.147125 -3.08171,2.414298 -4.716731,2.81594 -2.827911,0.694676 -2.875311,0.655506 -0.972764,-0.803878 1.1,-0.843775 1.533929,-1.548449 0.964286,-1.565941 -0.569643,-0.01749 -1.035715,-0.95907 -1.035715,-2.092397 0,-1.486436 0.497952,-1.930377 1.787095,-1.593259 0.982901,0.257034 1.572084,0.119443 1.309295,-0.305759 -0.262789,-0.425202 0.477069,-1.620735 1.644129,-2.656741 2.101423,-1.865444 2.110736,-1.862309 0.963706,0.324366 -0.991162,1.889534 -0.849569,2.373198 0.981665,3.353245 1.496856,0.801093 2.337371,0.825696 2.797077,0.08188 0.402802,-0.651748 1.15632,-0.264122 1.946651,1.001398 1.063024,1.702172 1.056989,1.924866 -0.03436,1.268153 -1.070601,-0.644226 -1.086382,-0.503181 -0.0825,0.737366 0.682728,0.843682 0.945228,1.830063 0.583333,2.191958 -0.3619,0.361895 -0.08485,0.657991 0.61566,0.657991 0.76301,0 1.02452,-0.649237 0.65226,-1.619331 -0.489902,-1.276664 -0.142224,-1.505359 1.643011,-1.080734 1.245424,0.296229 3.389407,0.804918 4.764407,1.13042 1.375,0.325502 1.934696,0.323397 1.243769,-0.0047 -0.690926,-0.328074 -1.021086,-0.97697 -0.733688,-1.44199 0.287399,-0.46502 -0.0043,-1.171114 -0.648278,-1.569098 -0.731227,-0.451923 -0.902922,-0.290138 -0.457295,0.430902 0.404519,0.654524 0.146628,1.124069 -0.595491,1.084223 -2.652983,-0.142447 -4.315182,-1.487926 -4.547449,-3.680964 -0.21041,-1.986672 -0.01234,-2.110055 1.685317,-1.049849 1.058062,0.66077 1.658327,1.630861 1.333923,2.155758 -0.324453,0.524975 -0.06247,0.628436 0.582284,0.229954 0.839467,-0.518819 0.598065,-1.454183 -0.850611,-3.295877 -2.161028,-2.747302 -2.145426,-2.799736 2.440065,-8.199987 1.1261,-1.326188 1.507532,-2.101084 0.847627,-1.721992 -1.41323,0.811852 -3.703458,-2.905213 -2.745267,-4.455598 0.356068,-0.576129 1.264976,-0.810519 2.019798,-0.520867 0.754821,0.289652 1.820619,-0.24217 2.36844,-1.181826 0.917757,-1.574193 0.998429,-1.56252 1.026447,0.148522 0.01991,1.215917 0.537185,1.66252 1.498384,1.293674 2.198522,-0.843652 2.941363,1.215964 1.446187,4.009726 -0.810438,1.514318 -0.952774,2.734653 -0.367948,3.154647 2.111461,1.516351 3.241901,4.812197 2.255243,6.575257 -1.330287,2.377092 -0.257385,3.214621 1.924377,1.502208 1.620062,-1.271549 1.652702,-1.237781 0.375781,0.388755 -1.221631,1.556107 -1.158431,1.960616 0.5,3.200263 1.826598,1.365348 1.81757,1.398686 -0.238756,0.881626 -1.175428,-0.29556 -2.378201,-0.147338 -2.672829,0.32938 -0.294629,0.476719 0.442085,0.823959 1.637141,0.771645 1.195056,-0.05231 2.269258,-0.419225 2.387115,-0.815358 0.526832,-1.770748 3.469294,-3.792343 4.784966,-3.287473 0.79632,0.305577 1.850501,-0.163895 2.342624,-1.04327 0.528976,-0.945229 1.401061,-1.285961 2.133211,-0.833467 0.844243,0.521775 0.898853,0.975271 0.171563,1.424762 -0.654753,0.404663 -0.253703,1.167195 1.03822,1.974019 1.83305,1.144755 2.0258,1.108005 1.4915,-0.284364 -0.667,-1.738188 0.8181,-2.226009 1.82363,-0.599019 0.33992,0.55 1.06803,1 1.61803,1 0.55,0 0.73976,-0.421078 0.42169,-0.935728 -0.35719,-0.577944 0.62807,-0.589742 2.5768,-0.03086 4.43282,1.271317 4.8902,2.089686 0.81056,1.450318 -3.18815,-0.499654 -3.25279,-0.458937 -0.92708,0.584034 1.375,0.616623 3.04948,1.215605 3.72106,1.331071 2.01421,0.346308 2.6137,1.474398 0.62057,1.167766 -1.0129,-0.155828 -2.17224,0.215438 -2.57632,0.825036 -0.45634,0.688442 -0.74049,0.445348 -0.75,-0.641641 -0.009,-1.000102 -0.76521,-1.743438 -1.76531,-1.734687 -1.11517,0.0098 -1.3367,0.281826 -0.61066,0.75 0.82536,0.532224 0.75646,1.090024 -0.25,2.024114 -1.14252,1.060354 -1.38934,1.01594 -1.38934,-0.25 0,-0.846685 -0.5625,-1.546318 -1.25,-1.55474 -0.8407,-0.0103 -0.75884,-0.347684 0.25,-1.030377 1.12419,-0.760748 0.83834,-0.861882 -1.14091,-0.40366 -1.48261,0.343245 -2.93393,0.137271 -3.30901,-0.469623 -0.36746,-0.594538 -1.146653,-1.081 -1.731542,-1.081 -1.897842,0 1.111579,2.765645 3.722482,3.420939 3.24316,0.813982 3.1361,2.03973 -0.19502,2.232818 -1.89801,0.110018 -2.25339,-0.09898 -1.24929,-0.734687 1.14421,-0.724418 1.09559,-0.891272 -0.26338,-0.903757 -0.916663,-0.0084 -1.855411,0.322187 -2.086102,0.734687 -0.230691,0.4125 -0.294939,0.220401 -0.142774,-0.426887 0.152165,-0.647288 -0.381889,-1.723437 -1.186787,-2.391443 -1.197758,-0.994051 -1.350885,-0.921214 -0.843432,0.401188 0.341672,0.890382 -0.09699,2.332749 -0.977108,3.212872 C 94.718707,90.288557 94,90.734289 94,90.400652 c 0,-0.333637 -0.942583,-0.102158 -2.094628,0.514398 -1.891019,1.012043 -2.026413,0.906085 -1.392866,-1.090045 0.476299,-1.500687 0.346061,-1.991222 -0.405372,-1.52681 C 89.49821,88.67453 89,89.593383 89,90.340091 c 0,0.746707 -0.5625,1.620149 -1.25,1.940983 -1,0.466666 -1,0.7 0,1.166666 0.6875,0.320834 1.25,1.290578 1.25,2.154988 0,1.355683 -0.271593,1.325866 -1.976419,-0.21698 -1.08703,-0.983749 -1.781825,-2.103494 -1.543988,-2.488321 0.237836,-0.384828 -0.237775,-0.699687 -1.056915,-0.699687 -1.024925,0 -1.167122,0.322223 -0.456011,1.033334 0.568333,0.568333 1.033333,1.468333 1.033333,2 0,0.531666 -0.284167,0.682499 -0.631483,0.335183 -0.347316,-0.347315 -1.359816,-0.25049 -2.25,0.215168 -0.890184,0.465657 -2.631518,0.46414 -3.869631,-0.0034 z m 4.061431,-6.22056 C 82.002142,89.058857 81.35625,89.261425 80.875,90.007644 c -0.725519,1.124981 -1.043219,1.100511 -1.859687,-0.143237 -1.101879,-1.678521 -1.323353,-0.966314 -0.426384,1.371149 0.470391,1.225821 0.960563,1.302635 2.435317,0.381636 1.015513,-0.634198 1.594245,-1.561063 1.286071,-2.059699 z m 5.35635,-0.343876 c 0,-0.92223 -0.365446,-1.014165 -1.21818,-0.306458 -0.888784,0.737626 -1.389669,0.327733 -1.852386,-1.515876 -0.348813,-1.389782 -1.061508,-2.526876 -1.583768,-2.526876 -0.983894,0 -0.322818,2.688432 1.127025,4.583333 1.157189,1.512412 3.527309,1.355096 3.527309,-0.234123 z m 7.971055,-1.653599 c 0.382586,-0.382586 -0.02783,-0.695611 -0.912038,-0.695611 -0.884208,0 -1.861351,0.410497 -2.17143,0.912215 -0.639816,1.035244 2.018349,0.848516 3.083468,-0.216604 z M 82.340491,80.606316 c -0.697927,-1.129269 1.668961,-3.854101 2.761361,-3.178961 1.026649,0.634504 0.0246,-2.498277 -1.379531,-4.312948 -2.019362,-2.609776 -6.052395,-0.505395 -7.186852,3.75 -0.461498,1.731096 -0.37316,2.076145 0.287221,1.121885 0.524537,-0.757964 1.475866,-1.055401 2.114065,-0.660973 0.811926,0.501798 0.848104,1.093391 0.120479,1.970125 -0.571935,0.68914 -0.840215,1.452649 -0.596177,1.696687 0.813472,0.813472 4.40018,0.45677 3.879434,-0.385815 z M 66,94.80539 c 0,-0.582459 0.45,-0.780902 1,-0.440983 0.55,0.339919 1,0.816476 1,1.059017 0,0.242541 -0.45,0.440983 -1,0.440983 -0.55,0 -1,-0.476558 -1,-1.059017 z M 55.458881,83.797876 c -0.362533,-0.586592 -0.389091,-1.336592 -0.05902,-1.666667 0.330075,-0.330074 0.600136,-0.08926 0.600136,0.535147 0,0.624405 0.675,0.87626 1.5,0.559677 0.825,-0.316582 1.5,-0.07746 1.5,0.531385 0,1.415103 -2.672669,1.445639 -3.541119,0.04046 z M 67.078947,82.05539 C 67.032257,81.281238 66.489249,81.053222 65.75,81.497348 c -0.753047,0.452416 -0.668187,0.03472 0.213449,-1.050636 1.496085,-1.841789 2.655629,-0.703498 1.698832,1.667695 -0.387912,0.961346 -0.522617,0.947717 -0.583334,-0.05902 z M 95.25,81.13113 C 94.5625,80.892765 94,80.21024 94,79.614407 c 0,-0.595833 0.296096,-0.787238 0.657991,-0.425343 0.361895,0.361895 1.261895,0.156795 2,-0.455778 0.738105,-0.612572 1.335118,-0.721168 1.326696,-0.241324 -0.02915,1.660873 -1.490014,3.07071 -2.734687,2.639168 z M 70.88465,76.828693 c -0.06344,-0.805357 -0.219901,-1.914286 -0.347685,-2.464286 -0.127785,-0.55 -0.300878,-1.592824 -0.384651,-2.317388 -0.10067,-0.870715 -0.915197,-1.102799 -2.402314,-0.684493 -1.76135,0.495444 -1.924233,0.404815 -0.75,-0.4173 2.137323,-1.496402 4,-1.324341 4,0.369491 0,0.79767 0.7875,1.897193 1.75,2.443383 1.666667,0.945785 1.666667,1.077402 0,2.763976 -1.417479,1.43441 -1.771918,1.492671 -1.86535,0.306617 z M 89.5,76.864407 c -0.339919,-0.55 -0.168034,-1 0.381966,-1 0.55,0 1.278115,0.45 1.618034,1 0.339919,0.55 0.168034,1 -0.381966,1 -0.55,0 -1.278115,-0.45 -1.618034,-1 z m 0.105028,-3.169939 c 0.478588,-0.774371 0.188414,-0.964775 -0.858224,-0.563142 -1.652515,0.634129 -3.300296,-1.806808 -1.832207,-2.714137 1.072738,-0.662988 5.253374,2.945913 4.400548,3.798739 -1.117807,1.117808 -2.468665,0.705896 -1.710117,-0.52146 z m 5.510973,-0.112285 c -0.0638,-0.980224 -1.092937,-2.143617 -2.28697,-2.585318 -1.194034,-0.441702 -1.751571,-1.062297 -1.238972,-1.379101 1.56186,-0.965282 4.622737,1.952236 4.113808,3.921135 -0.440552,1.704371 -0.479562,1.707244 -0.587866,0.04328 z M 73.191667,71.789407 c 0.197083,-0.59125 0.785833,-1.075 1.308333,-1.075 0.5225,0 1.11125,0.48375 1.308333,1.075 0.197084,0.59125 -0.391666,1.075 -1.308333,1.075 -0.916667,0 -1.505417,-0.48375 -1.308333,-1.075 z M 25.950512,49.58383 c 1.91456,-8.488912 4.877741,-9.915752 14.253446,-6.863368 3.462823,1.127367 9.221042,2.58139 12.796042,3.231161 7.240421,1.315976 39.123299,1.777686 51.5,0.745794 5.17215,-0.431221 6.58607,-0.370138 4,0.172804 -13.120136,2.754552 -50.011099,1.949067 -62,-1.353721 -2.75,-0.75759 -7.182579,-1.994623 -9.850176,-2.748962 -4.800815,-1.357568 -4.8746,-1.343133 -7.25,1.418435 C 28.079921,45.720452 27,48.049283 27,49.361154 c 0,1.31187 -0.401894,2.633603 -0.893099,2.937184 -0.509965,0.315176 -0.577055,-0.84933 -0.156389,-2.714508 z M 115,44.864407 c 3.41917,-1.09501 6.04822,-1.09501 3.5,0 -1.1,0.472686 -2.9,0.846202 -4,0.830035 -1.60779,-0.02363 -1.50973,-0.186406 0.5,-0.830035 z"
     id="path44759"
     inkscape:connector-curvature="0" />
</svg>
